# xmcd
#
# Track frame offsets:
#	150
#	14951
#	27255
#	44647
#	59157
#	72099
#	84205
#	102192
#	116344
#	127490
#	144462
#	157431
#	170271
#	186264
#
# Disc length: 2682 seconds
# Revision: 0
# Processed by: cddbd v1.5.2PL0 Copyright (c) Steve Scherf et al.
# Submitted via: dBpowerAMP V12.0
#
DISCID=d40a780e
DTITLE=Johnny Tanner - Juke Joint Rambler
DYEAR=2015
DGENRE=Blues
TTITLE0=I Got To Go
TTITLE1=Lovey Dovey
TTITLE2=Searchin' The World Over
TTITLE3=Bring Her Back To Me
TTITLE4=I Done Got Over It
TTITLE5=It Ain't Right
TTITLE6=Blue Vapor
TTITLE7=Checking On My Baby
TTITLE8=I Didn't Know
TTITLE9=Stop Breaking Down
TTITLE10=Run Around Woman
TTITLE11=Nobody But You
TTITLE12=Lighthouse For My Soul
TTITLE13=Out Arizona Way
EXTD=
EXTT0=
EXTT1=
EXTT2=
EXTT3=
EXTT4=
EXTT5=
EXTT6=
EXTT7=
EXTT8=
EXTT9=
EXTT10=
EXTT11=
EXTT12=
EXTT13=
PLAYORDER=
